<mxfile host="65bd71144e">
    <diagram id="HiVDzpEUa_gVQ5l6srdq" name="ページ1">
        <mxGraphModel dx="755" dy="701" grid="1" gridSize="10" guides="1" tooltips="1" connect="1" arrows="1" fold="1" page="1" pageScale="1" pageWidth="827" pageHeight="1169" background="#ffffff" math="0" shadow="0">
            <root>
                <mxCell id="0"/>
                <mxCell id="1" parent="0"/>
                <mxCell id="8" value="" style="shape=image;imageAspect=0;aspect=fixed;verticalLabelPosition=bottom;verticalAlign=top;image=data:image/png,iVBORw0KGgoAAAANSUhEUgAAADAAAAAoCAYAAAC4h3lxAAAABHNCSVQICAgIfAhkiAAAABl0RVh0U29mdHdhcmUAZ25vbWUtc2NyZWVuc2hvdO8Dvz4AAAAzaVRYdENyZWF0aW9uIFRpbWUAAAAAADIwMjLlubQxMuaciDE05pelIDA25pmCNDXliIYxOeenkp+gq9MAAAZeSURBVFiF1ZhLTxNvG8Z/nZl2OhwstCCn0qKImAYNBKIkatgZEyKJLvwCfhG/iQt2snFHosSYeCBEF8iGQzmfEmmdOjC0tJ3O/BdmxrYOUI7v65U0k0yfPr2v+77uw/N4LMuyqACWZeHxeCpZeqkQKl1YIc9Lh3TcAtvzx3m/nOBlRetIAsVGlRvkFhH73WVKzVNpDhTjKGKXjYpzwIZlWRXLyg2maZ5rPp0oApVIyrIsTNNEEAQEQcA0TVeyhUIBQRBc9zoJjk3icrgZbprmX+tsw03TxDAMDg4OHJKiKOLxeJynIAgUCgUkScLn810cATfjixO33NOWZZFIJFhcXGR+fp50Oo0kSQSDQZqamqirq0OSfptQKBSc97IsXwwBN+NtDxbDNE0ymQybm5tMTU0xPT3N8vIy2WwWy7IIBAIEg0Hq6+vxer0IgoBlWYRCIZqbm6murkaSJGpra6mqqmJvb49gMEhnZ+df5Coi4FYeD9O2aZqYpsnq6irj4+OMjY0xNzdHLpfD5/M5T9M0EUURURTx+XwcHBzg9XqpqalBURT8fj8dHR2Ew2F+/vxJLBbjxYsXNDU1nY5AuTTcsL+/TzqdJh6P8/79eyYmJlhYWEDXdWRZ5s6dOwwMDFBdXU0mkyGRSJDJZBAEge3tbVRVdSLi9Xqpr68nGo3S0NBANBqltrb2L1tcCVQy95SvyWaz7O3toWkab9++ZWJigpmZGUzTJBKJ0NbWxsjICE+fPqWxsZFcLkc8Hmd3dxdBEJidnWV1dbVkz56eHmKxGLIs09jY6JobrmX0MI/b7yzLcsqgrf+trS1GR0f58OEDy8vLJJNJPB4Pw8PD3L17l56eHsLhMJFIBFEUyefzHBwckM/nAdA0zYmG3+9HEAQkScLr9eLz+ZyP1+s9PgLl3vd4PEc2n42NDb58+cK7d++YnJzE7/dz9epV+vr6ePToEffv3+fatWslvxFFscSjjY2NwJ9GV+60wyRccRU6SlLj4+O8fv2ab9++4ff76e/v5/Hjxzx58sSpKrZxxc5wKwLlFa0YxcROTKCcjCiK7O7usrm5yffv35menmZvb48bN24wMDDAvXv3uHnzZskfu3Xew+TqRtKV8GkI2Jvt7+/z9etXFhcXnWSsq6ujvb2dqqoqdF13jHfzXjmZYiPt/DqumJy6kQGk02kKhQKapjnJODs7y6tXr/j8+TOxWIyhoSG6u7sJBoNOFM5zgj0TAUVRaGho4NatW6RSKfL5PLquMzc3x9raGgsLC6TTaRKJBNevXycUCtHU1ITX6z10TzcJFT/LcarzgA3DMNjf32d2dpaFhQXW19eJx+PMzMywvb2NrusoikJdXR29vb0MDw8zMjJCKBRyJtazQnz58uXL0/7YrtkNDQ2O9sPhMNFolEgkQmtrK4lEgmQyiaqqyLLsVCVFUU5MwM3XZ5KQDb/fT2dnJwD9/f0YhoGmaaysrDA6OsrExAQrKytMT08TjUZpbm526v5J4Cajs8fQBZIkceXKFbq6unj+/DnPnj2jpqaGZDLJzs6OM5XC7zH6LCe0CyEAOCNAS0sL4XAYSZIoFApkMhny+XxJx61kUDwM5yIhN9jV6OPHj3z69IlUKkU0GkVRFERRBP40xGKctMSeC4FcLoeqqpimiaqqrK+vs7W1xdLSElNTU6yvrxMMBunq6uL27dsEAoESw8s79bkRsDcuH7Ds7+C3hufn51leXsYwDJaWlhgbGyORSJDL5dB1nUAgQF9fH0NDQwwODhIKhUr2OKxLn5pAsUdUVeXNmzesra0hiiLV1dVYloWqqmiahmma/Pr1C1VVMQyDVCrFysoKmUzGMby3t5cHDx4Qi8Voa2srmUJPez1zJAF7Y8uySKVSTE5OEo/HyWQyKIpCNptldXXVqe32lOn3+1EUhUgkgizLtLS0MDAwwODgIA8fPkRRlFMbeqidbp3Y7pKmaaLrOlNTU2xtbaFpGhsbG/z48YNsNothGAiCgGEYyLJMe3s7HR0ddHd3U1tbS01NDYFAgPr6+pLkvXAC5Ugmk2iahq7rLC0tsbOzgyzLiKLo5IjP56O1tZVoNFoik4u+lj/RLFQoFMjlciW3avBHbvZh/CI8fRhOPMxVMtNfJk5ceP/Xt9HluLBR4rLwzxM49aH+/wX/fAT+eQL/AdHoU4OEgYhCAAAAAElFTkSuQmCC;" vertex="1" parent="1">
                    <mxGeometry x="404" y="589.13" width="59.1" height="49.25" as="geometry"/>
                </mxCell>
                <mxCell id="2" value="" style="shape=image;imageAspect=0;aspect=fixed;verticalLabelPosition=bottom;verticalAlign=top;image=data:image/png;base64,iVBORw0KGgoAAAANSUhEUgAAADAAAAAoCAYAAAC4h3lxAAAABHNCSVQICAgIfAhkiAAAABl0RVh0U29mdHdhcmUAZ25vbWUtc2NyZWVuc2hvdO8Dvz4AAAAzaVRYdENyZWF0aW9uIFRpbWUAAAAAADIwMjLlubQxMuaciDE05pelIDA25pmCNDXliIYxOeenkp+gq9MAAAZeSURBVFiF1ZhLTxNvG8Z/nZl2OhwstCCn0qKImAYNBKIkatgZEyKJLvwCfhG/iQt2snFHosSYeCBEF8iGQzmfEmmdOjC0tJ3O/BdmxrYOUI7v65U0k0yfPr2v+77uw/N4LMuyqACWZeHxeCpZeqkQKl1YIc9Lh3TcAtvzx3m/nOBlRetIAsVGlRvkFhH73WVKzVNpDhTjKGKXjYpzwIZlWRXLyg2maZ5rPp0oApVIyrIsTNNEEAQEQcA0TVeyhUIBQRBc9zoJjk3icrgZbprmX+tsw03TxDAMDg4OHJKiKOLxeJynIAgUCgUkScLn810cATfjixO33NOWZZFIJFhcXGR+fp50Oo0kSQSDQZqamqirq0OSfptQKBSc97IsXwwBN+NtDxbDNE0ymQybm5tMTU0xPT3N8vIy2WwWy7IIBAIEg0Hq6+vxer0IgoBlWYRCIZqbm6murkaSJGpra6mqqmJvb49gMEhnZ+df5Coi4FYeD9O2aZqYpsnq6irj4+OMjY0xNzdHLpfD5/M5T9M0EUURURTx+XwcHBzg9XqpqalBURT8fj8dHR2Ew2F+/vxJLBbjxYsXNDU1nY5AuTTcsL+/TzqdJh6P8/79eyYmJlhYWEDXdWRZ5s6dOwwMDFBdXU0mkyGRSJDJZBAEge3tbVRVdSLi9Xqpr68nGo3S0NBANBqltrb2L1tcCVQy95SvyWaz7O3toWkab9++ZWJigpmZGUzTJBKJ0NbWxsjICE+fPqWxsZFcLkc8Hmd3dxdBEJidnWV1dbVkz56eHmKxGLIs09jY6JobrmX0MI/b7yzLcsqgrf+trS1GR0f58OEDy8vLJJNJPB4Pw8PD3L17l56eHsLhMJFIBFEUyefzHBwckM/nAdA0zYmG3+9HEAQkScLr9eLz+ZyP1+s9PgLl3vd4PEc2n42NDb58+cK7d++YnJzE7/dz9epV+vr6ePToEffv3+fatWslvxFFscSjjY2NwJ9GV+60wyRccRU6SlLj4+O8fv2ab9++4ff76e/v5/Hjxzx58sSpKrZxxc5wKwLlFa0YxcROTKCcjCiK7O7usrm5yffv35menmZvb48bN24wMDDAvXv3uHnzZskfu3Xew+TqRtKV8GkI2Jvt7+/z9etXFhcXnWSsq6ujvb2dqqoqdF13jHfzXjmZYiPt/DqumJy6kQGk02kKhQKapjnJODs7y6tXr/j8+TOxWIyhoSG6u7sJBoNOFM5zgj0TAUVRaGho4NatW6RSKfL5PLquMzc3x9raGgsLC6TTaRKJBNevXycUCtHU1ITX6z10TzcJFT/LcarzgA3DMNjf32d2dpaFhQXW19eJx+PMzMywvb2NrusoikJdXR29vb0MDw8zMjJCKBRyJtazQnz58uXL0/7YrtkNDQ2O9sPhMNFolEgkQmtrK4lEgmQyiaqqyLLsVCVFUU5MwM3XZ5KQDb/fT2dnJwD9/f0YhoGmaaysrDA6OsrExAQrKytMT08TjUZpbm526v5J4Cajs8fQBZIkceXKFbq6unj+/DnPnj2jpqaGZDLJzs6OM5XC7zH6LCe0CyEAOCNAS0sL4XAYSZIoFApkMhny+XxJx61kUDwM5yIhN9jV6OPHj3z69IlUKkU0GkVRFERRBP40xGKctMSeC4FcLoeqqpimiaqqrK+vs7W1xdLSElNTU6yvrxMMBunq6uL27dsEAoESw8s79bkRsDcuH7Ds7+C3hufn51leXsYwDJaWlhgbGyORSJDL5dB1nUAgQF9fH0NDQwwODhIKhUr2OKxLn5pAsUdUVeXNmzesra0hiiLV1dVYloWqqmiahmma/Pr1C1VVMQyDVCrFysoKmUzGMby3t5cHDx4Qi8Voa2srmUJPez1zJAF7Y8uySKVSTE5OEo/HyWQyKIpCNptldXXVqe32lOn3+1EUhUgkgizLtLS0MDAwwODgIA8fPkRRlFMbeqidbp3Y7pKmaaLrOlNTU2xtbaFpGhsbG/z48YNsNothGAiCgGEYyLJMe3s7HR0ddHd3U1tbS01NDYFAgPr6+pLkvXAC5Ugmk2iahq7rLC0tsbOzgyzLiKLo5IjP56O1tZVoNFoik4u+lj/RLFQoFMjlciW3avBHbvZh/CI8fRhOPMxVMtNfJk5ceP/Xt9HluLBR4rLwzxM49aH+/wX/fAT+eQL/AdHoU4OEgYhCAAAAAElFTkSuQmCC;base64,iVBORw0KGgoAAAANSUhEUgAAACgAAAAuCAYAAABap1twAAAABHNCSVQICAgIfAhkiAAAABl0RVh0U29mdHdhcmUAZ25vbWUtc2NyZWVuc2hvdO8Dvz4AAAAzaVRYdENyZWF0aW9uIFRpbWUAAAAAADIwMjLlubQxMuaciDE05pelIDA25pmCNDXliIYyNOenkipqCd4AAAcYSURBVFiFzZnJT1NtF8B/994OdABKK4VqfQstjTYSKJFo1ASiYkiMC5fu/Av8k9yYuHBnQmJMADcOKKgoU5lEGTtCSwud2/suSG/gC9CLn/X7zqpNz33O757nTM9TQZZlmT8gh5cRBAFZlhEE4VjdcrkMgCiKVdfV/Am4ilQgqwGqAauI8Kc8WCtR7cH/3MK/Jep9zQFkqVRSvh/+XCtR7UFBEMjn84RCIYrFIpIk0dTURGNj45mCvmaAAMvLyzx79oyFhQUaGxt59OgRt2/fpq6ujlqFsmrAUCjEt2/fGB4eZn5+HpvNxs2bNykUCuh0OmRZRpKkvwsoyzLlcplSqcTKygqBQICtrS0ymQypVIr9/X0lDmsBB1WSRBAEJElCEARisRiRSIRCoYBer8fhcGCxWNDpdAiCoMThXwWsSDabJRKJEIvFKJfLnDt3jq6uLlwuFwaDoaZlRxWgLMsEAgE+fvxIMpnE4/EwODhIa2vrEbhaJIoqwHw+z9bWFqFQCACHw8GVK1ew2+2KjiAINfGkKsBcLkc+n0eWZRobG7HZbDQ3N2OxWIDaeE41YDgcZnZ2lnA4jCiKWCwWHA4HNpsNrVZbMzDVgGtra0xOTrKzs4NWq8VkMmEwGKivr685HKgAzGQyBINB8vk8Wq0WURT/f4YFWZZJpVJKcZZlmUKhcGRoqPW0VhUwFAoxPT1NIpFAFEWlY9Sqc5wJUBAEisUiqVSKYrF4ok5lgq6FN0/txdVi7fBYX4E8ruUd1lGzrmrAalIBlGWZbDbL9va2kkySJBGLxZienqatrY3Lly9jsVjOHBr/1chfKBTIZDJsb28TiUT4+fMn+XwevV6PKIqsrq4yPj6Oz+cjkUjg9Xqx2+2YzWZlCFEFeNoJrFQqHWljoigq2RyLxZiYmGBkZIT5+Xm2trbIZrPKFJTJZNjf32diYoLh4WE6Ozvp7+/n3r172O32PwNoNBqx2Wzs7OwoQ2m5XCaRSDA+Ps7Q0BCfPn1ifn7+RCO7u7tsbGwQjUYB6OjowGw2YzQaqx4Tqm6xzWbD7XYTDAZJJpPAQfFeX19naGiIly9fkkql0Gg0VTN5ZWUFo9HIrVu3aG5uxu12K7+d5CQNnJ5VVquVixcv0tDQQDQaZWNjg1evXvH9+3empqbIZrN4PB46Ojro7e3FYrFgNpsBSKVSrK2tMTMzw+LiIuFwmPX1dZ4+fYokSbS3tyt2TmKoCmg0Grlw4QImkwlRFIlGo8TjcSYmJjCbzfj9fjo7O7l+/ToDAwPYbDYFMJfL8ePHD0ZGRnj9+jXpdJp4PM7Y2Bjd3d08ePCApqamU+2ryuJMJnOkUJfLZSRJYnBwkIcPH+Lz+WhpaaGhoQGDwQAcbJlOp8PlctHX14fJZGJ5eZlYLIYoimxvb7O0tITP56OhoeH3AbVaLRaLBZPJdKQIW61Wbty4wZ07d2htbT3xeZPJhNPpJB6PY7fbWVlZoVwuUywW2d/fV1781Bg8Terr64+UBEmSsFqtXL16Fbfbjc1mO6J/XJIUCgWSySS5XA44KFUtLS20tbVhNBqBKjF4mlgsFi5duoTRaFSy1Ol00tfXh8vlUobWCtjh7pLP59nd3eXz58+8e/eO3d1dZFnGYDBgtVqx2+3U1dUdee7MgGazmfb2dpqamoCD+Dt//jxdXV04nU4F+rjDUzKZZGpqitHRUUZHRwkGgxgMBsX7Go1G0S+VSsr3MwFWemdlUBVFEY1GgyRJiKJIuVw+sdiur6/z4sULvn79yurqKrlcjp6eHh4/fkx/fz96vR442N7j4FQBVuDMZrPimUgkwtzcHFarFa/Xi0ajIZfLIQgCiUSCSCRCIpFgbGyM9+/fEwwGEQSB3t5e+vr6GBgY4J9//gGOhsZxL6oKUKvV4vV68fv9LCwsMDs7y/Pnz8nn8xQKBQwGA/l8np2dHQKBAJOTk8zNzbG5ucnu7q5SS588eUJ/fz/Nzc1qzKoH1Ol0XLt2jXA4TDQaJRQKMTs7i9lsZnFxURkm0uk0wWCQX79+sbm5SS6Xw2q1Kp7r7e3F4XAcmwy/ncUV8fv9pNNplpaWKJVKpNNp3r59y4cPHygWiwpkZZKRJAmn04nf7+f+/fvcvXsXp9N55psIVXfUFYBgMMj4+DhfvnxhZmaGN2/esLe3pySQIAjY7Xa8Xi8ul4uOjg56enrw+XzKHFjpQscBHutZNYClUkkZ5/f29ggEAkxPTzM5Ocni4iK5XI5isYher6e9vZ3u7m48Hg8ejwe3243JZFJOgZVKcJzZ3wYsl8tKvau0qWKxSDweP6InyzJarRaDwYBGo0Gv16PVahWYiqdPMvnbgBXIipFqL1IxVtEtlUpV4U4CPPOh6bSLysNQh0UN3IlrqvWgqoyrwZXImTz4N+9kKqL6j43/BRzAv124gXWLDGvPAAAAAElFTkSuQmCC;base64,iVBORw0KGgoAAAANSUhEUgAAACUAAAAvCAYAAABkBQNlAAAABHNCSVQICAgIfAhkiAAAABl0RVh0U29mdHdhcmUAZ25vbWUtc2NyZWVuc2hvdO8Dvz4AAAAzaVRYdENyZWF0aW9uIFRpbWUAAAAAADIwMjLlubQxMuaciDE05pelIDA25pmCNDXliIYzMeenkiDU0FwAAATvSURBVFiF3ZlNc9J6FIefkEADYYAilTY4SKOD0nFhXfkyddzYpUu/ll/DnW5c67iwS5z6Mtja2mmtFEIRB5oY8vK/iztk0Om9LS+2d+5vw4QZkie/c3LOyUESQgj+Y4qcN8BxmgrUwGwhBEEQTHy+qUBJkhR+DgCDIMD3/bEglUmBer0esizj+z6+7xOJRBBCkEqlEEKEwGcC1e122d3dZWtri0ajQavVwjRNIpEIuq7z6NEjDMMAGBnsRCghBJZlYZomvV4Px3EIgoDDw0M2NzfZ3NxkZ2eH/f19vn37hhCCSqVCoVAglUoxOztLNBqdLpTneezt7fHkyRPevHmDoihIkoTjOHQ6HVzXxbZtXNdFCIHruniex7Nnz7Asi8ePH08fqt/vY9s2nz9/5uPHj2HOzMzMEIvFSCaT6LqOpmkoisLGxgYHBwdUq1UuX75Mt9slkUiMFMIToaLRKEEQoCgKQgh83yefz3Pp0iU0TSObzbK8vEylUkGSJJ4+fcqLFy9oNpvs7u5iWdbICX8ilCRJpNNpVlZWuHDhAvl8noWFBXRdJ5lMoqoq+Xyeubk5AF69eoXnefT7fb5//45t2ziOQzweny5ULpfj3r17VCoVSqUS8/PzzM3NEYvFCIKASOTvctfv93+5+M+fP/E8b/pPnyzLpFIplpeXwyRXVRVZlsOw/Ft4PM8LoacGNZCmaUSjUX7v38MwjuNg23b43QB+VKdOdQuSJIWJPjj+Hc5xHBqNBrZtAxCPx8lmsySTyZGdGqv3HTftuK5Lo9Hg6OgI3/dJJBJkMhlSqdSfceo0arfbbG9vU6/XkWWZxcVFdF1HVdWzceo4mabJ2toaOzs75HI5VldXefjw4cjVHE5ZEk4znDabTarVKtFolKtXr3L//n2WlpaYmZkZGerUif5PGlT5TqfD3t4eCwsL3L17lytXrqBp2sihgxFKwj855nkezWaTr1+/YlkWQRAwOzuLoow/qo30y+Mcc12XWq1GrVbDdd2wUQshThX24zRxorfbbZ4/f87r16/p9/tks1kKhQKapo01dU4F6sePH7x9+5bt7W1UVcUwDMrlMvF4/PygOp0OnU6HIAgoFApcu3aNYrEYjjx/HGo4R4QQbG1t8eHDB9rtNsVikdu3b2MYRthazsSp4Tt3XZdqtcrLly/p9XoUi0VWV1cplUrA6C8LY0MN6+joiPX1ddbW1uh2u2QyGZaWlpifnw+fvDNxalCrHMfh8PCQT58+sb+/j6IoXLx4kUKhgKqqBEGAJElnBwXQarWo1WrU63UkSeL69euUy2USicQv4824Gqt4tlot1tfXMU2TdDrNgwcPuHnz5i9D4JnnlGmavHv3jmaziaZp3Llzhxs3boR9bhKgsaBc18U0TTY2NrAsi0QiQalUQtf1EGqcJjw2lOd52LZNo9Hgy5cvOI5DLpcjk8lM7M7YUEIIVFXF9308z8MwDG7duhU+cecCNXDD87xwd2DbdjiynAvUAEiWZRRFoV6v8/79ew4ODvA87/ygYrEY+XyexcVFYrEY/X4fYKpOjTweSpKEYRisrKxQq9VIp9NomjY1IABplJX1IHSDLV6320WWZcrlMqqqhgk/aUkYCWoQosFFh0M2vC6atDxMtIgd3gpPUxO9OAwfTxqyYY18ppNcmYZrYxXPP63/738z09Zf6+9S8zx89RcAAAAASUVORK5CYII=;base64,iVBORw0KGgoAAAANSUhEUgAAACcAAAAzCAYAAAAU5BG4AAAABHNCSVQICAgIfAhkiAAAABl0RVh0U29mdHdhcmUAZ25vbWUtc2NyZWVuc2hvdO8Dvz4AAAAzaVRYdENyZWF0aW9uIFRpbWUAAAAAADIwMjLlubQxMuaciDE05pelIDA25pmCNDXliIYzNuenkr0D6OUAAAfLSURBVFiF7ZnZTxPfF8A/Mx06hbYC0kKxQAUXZK+IuH6DkQdf9NEnX0z8R/xjfDAxxi2a+KSGB8AQsdHKMlgsW21lKYVO15n5PvjrCLhQlu9PHzxJk5vm5t7PPefcc849IxiGYfCHivi7AX4l0k4mF5T8K2ULgoAgCHuj+p9sC2cYBpqmkUqlyGazJJNJLBYLkiRhtVqRZRmr1YokSeZ8wzD2BXBbOEEQyGQyBINBRkdHGRkZQZZlPB4P7e3t+P1+GhoaAMjlciakruuI4t68Zls4TdOYn5/n5cuXhEIhZmdnqaysRBRFAoEAMzMzVFdXU19fj8vlwuVyYbfbKSsr2xNYUXCqqjI1NcXz58/JZDKcPXuWpqYmJEnixYsXBAIB4vE4vb29XLhwgfb2dpqbm6mvr0eW5f8W7vPnz4yPj6MoCh0dHVy6dAmfz4cgCHg8Hs6fP8/c3ByRSIShoSECgQDd3d309/fT1NSE3W43Tb3vcGtra6iqiqZpVFZW4vP5OH78OKWlpXR0dCAIApFIhPv37/PkyRPGx8f58uULgiBgsVjo7OzcFRiA5fbt27d/NeHAgQPIsszCwgKSJJHP56mpqaGqqgr46vg2mw2v14vf7yeXy7G8vMz4+DgVFRUcPXoUm822K7htNVdWVobX6+X06dNMTk4yODhIY2MjHo8Hh8MBgNVqpaGhgcrKSlZXV8nlcjx8+BBFUZifn0cQBJxO547Dy7Z3XRAEDh48SF9fH263m7GxMV6/fk0wGCSdTiMIApqmsb6+TjKZpLW1ldbWVgzDYG5ujoWFBVKp1I6gClKUp9rtdpqamjhz5gyxWAxFUbh37x4rKyuUlpYSi8X4+PEjc3NzyLLMxMQEi4uLZDIZ0um0ecidBudfwhXSVElJCS6Xi+7ubgzD4O7duwwMDKBpGoZhEAqFmJiYIBKJoOs6qqpSUlKC0+k0TV9Yb9/gti5UVVVFb28v2WyWwcFBBgcHicViqKrK+fPnuXbtGqlUilAoxPT0NC0tLbS0tFBRUQGw44xRdAASRRGbzUZ1dTVHjhwhHA4zPT3N8vIyhmFw+PBhrl69yszMDLW1tRw5coSOjg5qamp2BLQjuI2mkCQJVVVJJBIsLi6STqfRNA1ZlqmpqaGuro5EIoHT6eTKlSscPnx4Tzm2KJ/bKOl0muHhYQKBABcvXmRxcZFEIsGnT58YGhrC6/Xi8Xjw+XzIsryn6mRHmkulUsRiMYaGhgiHw9y8eROn08nw8DCTk5MsLS1x69YtXC6Xmfj/M7iNCxuGQTQa5f3798iybObZQ4cOcfLkSR4/fsz79+959OgRS0tLXL9+HavVumuwbeG2Ai4tLREMBnG73Xg8Hurq6vB6vfh8PqLRKJFIhMHBQTKZDH6/n8bGxj2VTjvy1GQyyefPnyktLaWmpgar1Wo6e3NzM5cvX0aSJCYnJ3nw4AHBYHDXYEXDGYZBMpkkFAqhKAoHDx6kra0Nu91uzqmrq6Orq4srV67gdrsZGRkhFAqh6zq6rpvl+77CFcCmpqZQFIVoNEptbS2dnZ04HA50XQegvLyctrY2bty4wT///EM4HGZiYoJoNGqmsI1wxYAWlfiTySRjY2Osra1x4sQJvF4vdrsdTdNMn9R1HUmS8Pl89PT00NPTw/z8PHfu3CEUCpFKpb4D2qrNreOizBqPx3n79i2qquL3+/F6vVgsFiwWy7dTiiKiKCLLMg0NDfT395PNZnn27BmBQIBYLIamaZvWLWj9Z1K0WYPBIPF4nNraWpxO5w9PahgGoihSVVVlmj0ajTIwMMDo6OgmmH0xaz6fJx6PoygKiUSCioqKTZVtwawbTVQoUJubm6mtrSUSiTAxMUEymdy8uShuClVbx9vC6brO+vo66XSafD6PruumebYuVvhZLBYcDgd+v59z586haRqzs7Pmrf0RzI+k6DhXCAlbN/iZWCwWPB4PjY2NfPnyBUVRmJ6eJpVKoet6UWltWzhRFHE4HGbA3Qj3I5/b+L/H46GhoYFsNkssFmNmZoZkMll00bktnCRJVFRUmG/QpaUlVFX96fyNwIXy3uFwoKoqy8vLqKq67S0tGk4QBOx2O62trZSXlzM/P08ikdgU4+Cbc2/1w4Kv5nI5crkc+Xz+hwfZFRx8Lc/7+vpwuVy8efOGkZERwuGw6T+appHP583NBEEgn88zNTXF0NAQq6urlJSUIIoikiSZ+fhXcIZhFFemHzhwAL/fTzQa5cOHDzx9+pSpqSlOnTpFfX095eXl2Gw28vk8kiSxurrK+Pg4gUCAd+/eAdDe3k5bWxtlZWVFwQmCUBycJEk0NTXR1dXF27dvefXqldl2aGlpMYvLbDaLJEl8+vSJly9foigKuVyOrq4u+vr6aGlpMR/XxfidsJOe8MrKCoqiEAwGiUQiaJrG2toaKysrZk+lcGszmQyNjY10dnZy7NgxMycXmjr5fN5MefsCl81msVqtxONx5ubmmJ6eJhwOE4lEWF1dJZPJAF/bE263m9bWVs6cOYPb7cZms20C2Xc4+BaMNU3bdAMLF0IQBERRxGKxmO0vSZK+i2uapn2XvvYMtxcxDGPTU3G7FsX/tdUvCAK5XM4cbzv/d3wk2aitX2nut8AVK3/0F5y/cLuVv3C7lb9wu5U/Gu5fMET6ryLG/zcAAAAASUVORK5CYII=;" parent="1" vertex="1">
                    <mxGeometry x="420" y="400" as="geometry"/>
                </mxCell>
                <mxCell id="3" value="" style="shape=image;imageAspect=0;aspect=fixed;verticalLabelPosition=bottom;verticalAlign=top;image=data:image/png,iVBORw0KGgoAAAANSUhEUgAAACoAAAAwCAYAAABnjuimAAAABHNCSVQICAgIfAhkiAAAABl0RVh0U29mdHdhcmUAZ25vbWUtc2NyZWVuc2hvdO8Dvz4AAAAzaVRYdENyZWF0aW9uIFRpbWUAAAAAADIwMjLlubQxMuaciDE05pelIDA25pmCNDTliIYzNuenkqp4/KYAAAi+SURBVFiF7ZnbU1NnF8Z/+5ATbAghJiRForYEAmoKKrRqlXHsYfSq0970qv1DeuNf0ptedHrVVmd6uHCwZbQMyGEqFjA0EBAI5iRBks1Osvd30dl7AnII1U/7zXzPTd5J8r7vs5+13rXWu7ZgGIbB/wDE102gVsivaqOdhhME4VDzXxnRwxLbif+b3oRhGBiGga7rlvkFQUAURQRBqFnp/xrRra0tEokEjx49Ym5ujoWFBfx+Px0dHXR3d9Pa2kpDQ8PrJappGvF4nPv37zM8PMzw8DBTU1O0trZy8eJF0uk0Z8+epbe3F1GszfuElx1Hi8Uii4uLfP3119y+fZu1tTXW1tYoFArU19fT2NiIx+Pho48+4ssvv8Tr9da07ktTVNd1nj17xvz8PPfu3ePXX39leHgYWZbRdR1JkiiVSiSTSZLJJKFQiEwmQ1NTE5IkbVvLMIznXOKFieq6jiAIFItFnjx5wuDgIF999RWJRAJJktB1HVmWURQFm81GsVikUCiwvr5OLBZDURSam5txOp3bCO4kK924cePGPyGn6zqiKKLrOoVCgbm5OW7evMnPP//M1NQUm5ub1kl3uVz4/X6i0SjRaJRUKkUqlSKbzfL06VMkSaKpqQmn07ltn2qi/0hR8wAUCgWy2SyPHz/m7t27fPfdd8zOzrK5uWn9zwxDLpeLrq4uwuEw09PTjI+Pc/PmTVZXVwE4cuQIjY2NzxE8NNHd/ObBgwf88ssvjI6OkkgkWFxcpFgsIggChmEgiiKSJLG1tcXS0hKZTIZwOExbWxvz8/PkcjlyuRxLS0tsbm5ae1TH20MR3S0wlEolFhcX+e2335icnGRjY4NSqYQoirhcLhwOB4qisLKygiAIbGxsUC6XsdvtdHZ2ksvlGB0dxTAMCoWCpfwLK1oNVVVZXFxkenqamZkZMpmM9VtzczNvvfUW0WgUm83GN998QzabJRAIEAwG6erqIhAIYBgG4+Pj1sOZguyVAGoiWm0OVVX5888/uXXrFnfu3GF9ff3vhWQZt9vN+fPnuX79Og0NDayvr3PhwgVEUSQajXL58mWOHz9OMBhkdXUVh8NBJpMhFosxPz9PJBKxTr+576GImigWi6ytrTE2Nsa3335LLBazFlUUhVOnTvH+++/z6aefkslkmJub49q1azQ3N3Px4kV8Ph92ux1RFDl69CiyLJPNZnn06BEzMzN0d3cTCoVwOp21x9GdZtA0jdXVVcbHxxkeHmZ5eZlKpYLT6cRutxMKhTh37hynTp2isbERp9OJoih0d3ejKAqNjY3IsmwVKdWKJZNJxsfHaWlpwev1Phem9iRaXfGYWSOVSjE2Nsbt27cZGRlB0zR8Ph/hcBi32017ezt9fX20tbUhyzJ2ux1FUfa1UKVSscbxeJx4PI6u67v+d1eiZvllPnm5XGZiYoIffviB+/fvs7S0BEBfXx8ff/wxkUiEI0eOIEkSiqJsI7Af7Ha7Nc7n8+Tz+T3n7uujhmFQqVTI5XI8fPjQMrndbmdgYIDr169z5coV3njjDex2O1tbWwBIklRT+aaqqjXWNA1N0w5HtDpuappGLBZjbm6OpaUlNE2js7OTzz77jPPnzxMIBCznd7lc2yxxEKp98aAiek/Tm5/Ly8v89NNPTExMoGkaHo+HkydPcubMGYLBoLXZfjFwL5gWgL/DmyzLz1VS+xKtXmhmZoahoSHi8TiyLHP8+HHefPNNfD7fc4rsNt4PNpvNGpt1waGJqqrKwsICMzMzrKysUCgUcDgcnDhxgo6ODurq6g68Ah+kcrU/trS00NLSgiiKu87b8x5gHqJsNks6nUbTNOrr6+nq6uLkyZO4XC6L3EH+VR1yDMMgkUgwOzuLYRjYbDbritLX17dN5WrUnJlEUcTr9RKJRAiHwxbJ/bCbwul0msHBQYaGhlBVFb/fz9mzZ/nggw/o7++3DuQLEa2rq8Pj8eyaOQ6aaxgGf/31FyMjI3z//feMjY1RLpdpb29nYGCAtrY2Ghoa9lyjZqJmpnG73XuapxrmDaBcLqOqKul0mnv37vHjjz8yMTHBxsYGp0+f5urVq7zzzjv4fL4Xr54AQqEQp0+frllNMwWn02lmZ2f5/fffGRoa4sGDB7jdbj788EM+//xzTpw4QVNT054mPzRRTdMoFovIcm1T8vk8CwsLTE5ObstqLpeLgYEBrl27xnvvvbetntgPe+668+lWVlaYmpoilUrtWThU4+HDh9y5c4dbt24xPT1NqVSio6ODgYEBvvjiC3p6ehAEAUmSdq0/aya6c2K5XGZ5eZmRkRG8Xi/BYBBFURBFkVwuRzKZtJoNmUyGqakpYrEYjx8/RpZlWltb6enp4dy5cxw7dsy6wdbaf9pXUTNvm02Ep0+fWlX9pUuXcLvdOJ1OS+0//vjDIpfP57HZbHg8HqLRKJFIhP7+fnp7e7f54wv3ngRBoFKpoOu6dbMsFotMTEyQSCQYHR21IkA6nWZ5eZlcLoeqqpRKJerr6zl69CidnZ309fVx5coVQqEQiqLgcDgORXJfooZh4HA48Hq9uN1uVFW1slUmkyGZTFJXV0epVOLZs2fWQzkcDnw+H2fOnCEajRIMBnn77bfp7e21DqLZmHgpRJ1OJ21tbbS3txOJRCgUCuRyOQRBwOFwoKqqVT+a/U673U57ezv9/f188sknvPvuu9hsNiRJ2ta1O0xf1JqzXzdPVVVisRh3795ldHSUyclJ4vE4+XzeajAA+P1+qwvS2dlJJBKhp6eHQCDwwi1xE/ueeqfTSSQSoaWlhXA4TDAYZHBwkOnpaSqVCltbWzQ3N3Pp0iUuX77MhQsXOHbsGG63u6bYeBjsqqj5lalapVIhm83y5MkTUqkUmUxmW/3o8XgIBAL4/X5cLlfNV5EXJlpN2Dz9Zph61TA5vPSO88tENbVXL1EVicPUs6+N6EEw06uJf+0LsZ1qv1Yf3Wn+/dzhX6uo+Z7AxH8AhToyNI2RtsQAAAAASUVORK5CYII=;" vertex="1" parent="1">
                    <mxGeometry x="201.44" y="583.75" width="48.56" height="55.5" as="geometry"/>
                </mxCell>
                <mxCell id="4" value="" style="shape=image;imageAspect=0;aspect=fixed;verticalLabelPosition=bottom;verticalAlign=top;image=data:image/png,iVBORw0KGgoAAAANSUhEUgAAAB4AAAAqCAYAAACk2+sZAAAABHNCSVQICAgIfAhkiAAAABl0RVh0U29mdHdhcmUAZ25vbWUtc2NyZWVuc2hvdO8Dvz4AAAAzaVRYdENyZWF0aW9uIFRpbWUAAAAAADIwMjLlubQxMuaciDE05pelIDA25pmCNDTliIY0OOenkviHV4UAAAUXSURBVFiF7ZhBbxJPGMZ/C0tZKNSItJtoW4I1EotNo6jRNiYao1GP+r38HHrwYOLFgzEhJkrECqbqoa1ooFIgSqGULiw78z/8wwqWtoAcfRLCLjszv3nefeedXRQppWREklLaH0VRUBQFwP7ulDoqaFudkLanPycyMLgzOIqi2O4cDgcAQggURbHPO/u1+7bhQzs2DINqtUomk6FaraJpGrOzs4RCoX1t27CuicoBJISQQggppZSFQkHG43F5//59efLkSRmLxeSjR4/k9va2rNVq0jTNff0ty5KWZUkhhBzaca1W4/v37+RyOba2tiiXy6RSKcrlMm63m/HxccbHx3E6nT37O3r+2ocMw6BUKnWdf/r0iadPn5LNZrEsCyFEV5+hk+sora2t8fjxY44dO4au6/h8vgPbDu24lxqNBslkkm/fvlGv14HulQDYy2pgx4fVm1arhd/vx+l07ltSf+qvHDudTlT199yllNRqNdvVYZMc2HE7QYQQNJtN9vb2uq55PB77eGTgzqxsNptUKhUsy+pqYxgGqqp2VbaR1GopJfV6nc3NTdbW1vjx40eXM6/Xe6TbocC7u7uUSiUSiQQvX760sxf+j8jk5CS6rjM1NdV1///UwMnVbDb5/PkzGxsb/Pz5E/hdgzVNY2ZmBl3X8Xg8dsjbbdqTGxgspaRSqbC+vk6xWMThcCCEwOl0oigKwWCQcDhMIBDA5XKNLrmklOzt7ZHP5ymXy/bA7Xo8OTnJ6dOnOX78+L6E6tw+YQjHtVqNTCbD9va2XYsty8KyLFwuF2fOnDm0VLbVt2PTNMnlcqysrLCyssLm5iYALpfLbjMxMUEgENgH7rWk+gbX63USiQTxeJxCoUCz2URRFIQQ9lqemJhgenraLiKHqa9QSylpNpuk02nevXvHzs6Ofb/abjweD9PT04TDYdxu974xBnYspaTValEsFu0l1Pn0qCgKqqqytLRENBrF6/X24+Vox4qiUKlUyGQyFItFexPovD4zM8Pt27eZn58/cIyBwQBfv34llUqRz+dptVpdjr1eL9FolOvXr7OwsNDPcMARoZZS0mg0WF9f5+3bt+RyOfvetuGxWIylpSUikUjfYYYjHBuGwdbWFm/evOH169fU63Ub2M7ke/fu8eDBA/x+f8+QHqRDHefzeZ49e0YymWR3d9cug5Zl4fF4WFxcZH5+nlAohKqqB26BA4EbjQbpdJonT57w5csXhBAIIXA4HLhcLiKRCHfv3iUUCjE2NgYc/ljUF1hKSSaTYXV1lUwmQ61Wswd1uVzous7ly5e5ePEiJ06c6Bt2JPjXr198+PCB1dVVDMOwQ+h2u9E0jeXlZa5du0YkEmFqasqe7F+BLcsil8vx6tUrEokE1WrVzmTDMDh37hwPHz7k6tWrBINBnE7nwNCe4Gw2SzqdJpVKUSgUAOxdyOfzMTc3x8LCAqdOnbLfFgbJ5gPByWSSFy9esLGxgWmaqKqKEAJN01hcXCQWixEMBpFSDu22C5zNZvn48SPPnz8nHo+zs7ODEAIpJWNjY4RCIW7dusWNGzdwu91DuewJNgyDYrFIqVSiWq1imiaKohAIBDh79iyXLl1ieXmZubm5nrvPwGDTNO0lEovFaDQaeDwe3r9/j9fr5ebNm9y5c4fz58+j6zqaph35etIXuP0EoWkauq5z4cIF/H4/4XAYn8/HlStXiEajzM7O/jWsU8oo//UZRCN9Tf0HPkz/AcY0wrrrXeBJAAAAAElFTkSuQmCC;" vertex="1" parent="1">
                    <mxGeometry x="250" y="585.5" width="37.14" height="52" as="geometry"/>
                </mxCell>
                <mxCell id="5" value="" style="shape=image;imageAspect=0;aspect=fixed;verticalLabelPosition=bottom;verticalAlign=top;image=data:image/png,iVBORw0KGgoAAAANSUhEUgAAACkAAAArCAYAAADlqKH9AAAABHNCSVQICAgIfAhkiAAAABl0RVh0U29mdHdhcmUAZ25vbWUtc2NyZWVuc2hvdO8Dvz4AAAAzaVRYdENyZWF0aW9uIFRpbWUAAAAAADIwMjLlubQxMuaciDE05pelIDA25pmCNDTliIY1NOenko8xwY0AAAg5SURBVFiF7ZjLbxNXG4efmfH4GntwMImJnYuTuM1FhHBpkBBIgAAJqSxggcSiSv+t7tiwYQVCLJq2AgGCQCCkSSBCwXFMlIQ42HEd2/FlLl30m4MTLl9C6devUt/VjOd4znN+572dkSzLsvg/N/nvBtiO/Qv5pcyx3YGmaQIgy+/WZRgGsiwjSZIYU61WMU0TVVVRVRXLssTz+uudmPSpwDFNcxOUPdHWe1mWsSyLjY0NcrkctVoNn8+H3+9HlmVUVd30TkmSdgT7Qch6uFQqRSaTIRKJoOs6S0tL6LouJtZ1HVmWKRaLZDIZkskkuq6zd+9e9uzZQygUIhwOs3v3brxe7x+T/gdwu6Af3W5bmQcPHjA9Pc2RI0eo1WqMj49TKpWAP7beMAwA8vk8y8vLzMzMUCwWaWlpIRaLEY/HGRoaoq+vj46ODnw+3463/YNKWpbF/Pw84+Pj3Lhxg4mJCdrb26lWqywtLVGtVlEUBXinerlcplgskk6nAfB6vYRCIQKBAC0tLezfv5/Lly/T29uL0+l8z412rKQkSaysrHD//n0mJiaYnp5mamoKAEVRNvmlLMs4HA50XUdRFJxOJ4qiUCqVWFpaYmFhgRcvXpBKpQiHwyiKQjweF+M+G9KGkSRJbI1lWTidTgBqtRqWZeHxeGhoaEBVVXRdFwFRq9WoVCoiSCzLIpVKcfXqVQqFAsPDwwL4syFN0yQQCNDc3IzL5QLA7XbT3NwsQP1+P9FolHA4jMfjEalIkiQWFxcZGxsjkUiI38vlMpOTk/T29lIoFDAMY9u++VElNU3jwIEDjI6OMjs7y8mTJ+ns7ETTNEzTJBgMsn//fjo6OvD7/TidTkzTxDAMXr58yQ8//IAkSczNzeFwOKjVahiGQalUolwub0vBT0JKkkRjYyP9/f189913nDhxgmg0SiQSwefzCf9rbW1F0zRkWRapSJIkmpqaaGxsxO12A4hAs5O7w+H4MoHjdDqJRCJcvHhxWy+yffi3334jnU5TLBYxDANFUTb5Zn3l+tN58r9ZfUDBHwsrFos8ffqUkZERHj58SCqVwjAMEf12ubQXtF37bEgbVNd18vk8GxsbvHr1ih9//JGRkRGSySSlUglFUUTk9/T00NPTg6Zp/xtIe5KNjQ3m5uZ4+vQpjx494v79+ySTSbGthmEgSRLxeJzh4WHOnTtHKBT66yErlQqVSoVcLsfMzAy3bt3i+fPnLC4usry8jCRJQkGPx8PAwADHjh3j1KlTxGIxPB7Pe43KZ0N+LI9lMhlWV1d59eoVd+7c4dq1a6TTaZEnbQCv10tHRwcXLlzg9OnT9PX1beqI/jSkPVF9R5TJZPj111+ZnJxkYmKCubk5FhcXWVtb25RSvF4vX331FYcOHWJwcJAjR47Q1dWF2+3+rH7yk5CyLGOaJtlslkQiwcuXL3n8+DEzMzPMzs6ysLAg1Ha5XAQCAaLRKJ2dnfT19XH48GH6+/tpamrC5/PtGO6TkDYgQLFYZHJykitXrvDo0SOy2Szr6+uYpolpmiKdtLW1cebMGYaGhvj6669pa2sjEAh8tJGoV3Srf25V21E/sL4ZXVlZ4cWLFyQSCSYnJ0XUWpaFZVmoqkpTUxORSITe3l4GBgYYHBwkFovR2toqav7WxdtRbyf5QqHAxsbGpnHNzc2bIbeuolgsUqlUGB0d5ebNm4yPj7OwsMDa2ppYiKZpNDc3E4/HOX78ON9++y3RaBS/379JhVqthsPhEP+TJIlqtSru8/k8s7OzrK6uivE+n4/BwUEikcg7yPqXptNpZmdnmZqa4t69e4yOjpLJZMjn8+IcY1kW33zzDefPnxfb2t7ejsvl2hTZAKqqYpqmUFCWZZaXlxkbGyOfz5PNZnn48CG5XA5ZlqlUKkQiEVpaWjZD2hemaZJMJnny5Ak//fQT09PTpFIpFEVBlmVisRh+v59QKMSxY8cYGBigu7sbj8dDqVRifX1dKFQul1leXqZSqWzqSU3TZG5ujp9//pm3b9+yvr7O1NQU5XJZuE8oFKJSqXzYJ6vVKs+fP+f27duMjY2Ry+WEHzU1NYluqK2tjUQiQTKZJJVKiXOOXaOr1Srz8/P88ssvpNNp0fnYx1+7XSsUCpimSaVSQVVVWltb+f7777l06RLhcPjDkLVajUQiwfj4OLlcTpQzy7IoFou8efNG1GM7V9q1WVEUarWaWFQ6nWZiYoJyuSyi3w4Y0zRxu914vV4sy8LtdrN3715OnDjB0aNH6erqYqsJSFmWef36NQsLCyiKgmEYwqfK5TLXr1/n7t27qKpKOp0mm82+d+iv9796KEmSRErbs2cP7e3taJometD+/n7Onj1LT08Puq7jcDg+Dtnd3U0sFmN+fl4kcnsrV1dXhYPbAWR/rbAj1/6PDb7Vzp49y6FDh+ju7mbXrl1iYY2NjXR2dhIKhT6YUwWkoigcPHiQbDbL48ePSaVSrK2tiRcZhiFWXq+Qy+XCsiz8fj/hcBhZlqlWq+JwpqqqSPYXLlzg8OHDdHV17agCiXO3YRgUCgVRi589e8bo6CgPHjwQytoK2srH43EikQjBYJChoSGGhoZoaGgQxwPTNMX2OZ1OgsEgwWBQPN9xZy7LMpqm0dDQQLVaZdeuXWiaht/vJ5FIoOs6uq6LauPxeOjt7SUajaJpGvv27aO/vx+Px7NthXaspG31t+vr66ysrPD27VvxTJZlZFlGURSCwSCBQACXy4XH43nP4f8yyA9ZPp8XqcROK6qq4nA4RNkDtn3Y/0sg/277R3zp/RfyS9m/kF/K/hGQvwMpeWEwYJBK5AAAAABJRU5ErkJggg==;" vertex="1" parent="1">
                    <mxGeometry x="287.14" y="590" width="45.29" height="47.5" as="geometry"/>
                </mxCell>
                <mxCell id="6" value="" style="shape=image;imageAspect=0;aspect=fixed;verticalLabelPosition=bottom;verticalAlign=top;image=data:image/png,iVBORw0KGgoAAAANSUhEUgAAACIAAAArCAYAAAAdSFoKAAAABHNCSVQICAgIfAhkiAAAABl0RVh0U29mdHdhcmUAZ25vbWUtc2NyZWVuc2hvdO8Dvz4AAAAzaVRYdENyZWF0aW9uIFRpbWUAAAAAADIwMjLlubQxMuaciDE05pelIDA25pmCNDXliIYwMeenkmd0qowAAAf7SURBVFiF7ZjbTxNdF8Z/M512qK0tiCeqFSwqeAie4gFjPLxGuVMTL40XXhsT/wP9I7w0hph4ozcmBqOiBrQEowUhVeuhWBBUiigthdLOdGZ/FzojBTnpm3zfxfckk07T7r2evZ61135mJCGE4H8A8n+bgIX/E5mKBRGZWk6maf5rRJSFEjEMAwBN00ilUmSzWVRVnUbKNE2EEEiShKIoKIqC3+/H4XDgdDqR5eIczErEmsiCdT88PEw4HKa5uZlXr14BTJtYCEGhUMA0TVasWEFVVRWHDh2irq6OZcuW4fP5iuaeMyO6rjM+Ps7Q0BAjIyOkUin6+voIh8O0t7fT19eHrus2UYuQJaNpmkiSxIYNG9B1HV3XOXr06LQ4sxKRJImxsTFisRhtbW00NzeTSCRIp9OMj4+TzWZ/TKIoRYEBHA4HkiQhSRKmadLb28vDhw8RQrBjxw7KysrmT0QIQTwe59q1a0QiEfr7+/n+/bu9SvghiSRJFAoFtmzZgt/vxzAMhBB2HSWTSQqFAp8/f6anp4d8Pl8ky5xENE0jFovR2NiIYRjIsmwXoWmatgyKolBXV8eRI0eoqKiw/5PJZOjp6aGjo4NYLIamaQwODpLP56fFmpHIyMgIbW1ttLa22rvFCmBlwuFwsHXrVk6fPs3evXspLy+npKTElmd8fJyenh5kWSaRSFAoFBgbG5tW2LMSmay5pmm25oVCgZKSEiorK6murmbHjh2cPHmSYDCIw+EomiOVSvHy5UsymQy6riOEwOVy/b7/iFmQzWbF5cuXhcfjES6XSwCioqJCnDp1SjQ2NoqnT5+KL1++iFwuJ4QQwjAMe6xpmuL169fi8OHDQlVVAQhZlkUoFBKdnZ3TYs1aI263m4MHD3LhwgW+fftGaWkpFRUVVFZWsm3bNsrLy/F4PEWFC1AoFIhGo9y/f5+Ojg7y+TyKolBaWsrevXtZtGjRwjJimqYwTbNopfPB9+/fxaVLl8SWLVtESUmJnZGGhgZx5coVMTg4uLCM/An6+/sJh8O0trby4cMHcrkcqqqyceNGjh07xrFjx/D7/dPGzYvI1D0/E4aHh+no6KCpqYl4PM7ExAROp5O1a9eyc+dO9u3bRzAY/O3Yv86I+HkeDQ0N8ejRI27cuEFLSwvpdBpVVQkGg9TX19PQ0MDq1aunnV/zImINEDO4yWw2y8jICIlEgq6uLtra2njx4gXpdBrTNFFVlePHj3P48GFqa2tZvXr1jLEWbAMscoZhkEwmiUajNDc3Ew6HicViRV23pqaGs2fPUltbO6e8C6oR61PTND59+kRTUxNNTU28e/eOoaEhu/s6HA4aGho4ceIEgUCg6FT+KyJTMTo6SiQSoampiXv37hWdQQAul4s1a9YQCoWQZdn+fTYyf0RkYGCAu3fv8ubNmx+TKIrtSRRFQZZlrl+/zsjICMFgEL/f/+9IMxUej4dQKMTQ0JDtRSw70NPTg67r5HI5otEouq7b2Zp6Fv0VEdM0WbduHefPn2f37t08efKEXC6H0+lEURTC4TAtLS3AL487nz6kzLSvZ4Kls8/nY/PmzZSVlVEoFFBVFVmWWbJkCUII2tvbyefztLe34/V6qaysnLtGxE+jaznu+SIQCLBs2TIURbEtYS6XY3BwkIGBAYaHh+nq6iIUCrFmzZrZFwiQz+fp6+vj69evMzavmWD5FMD2qG63266JuZqiBWV4eJi3b9/y7NkzXC4XgUCAPXv2sGrVqnkRkSTJbmIOh4NkMmmbIStL84HS0dHBrVu3ePDgAclkkuXLl3Px4kXOnDlTFGhy4KlE4FftJBIJ7ty5g6ZplJeXz7v+5FQqxejoKOl0mmw2y8DAAN3d3bx8+ZKJiQmEEPYFFN1b3wEymQx37tyhpaWFXC6HruuoqsquXbvYtGnT3Bnx+Xx4vV6y2SymaWIYBtFolNbWVsrKyqioqJj20GTda5pGoVDAMAy6urq4evUqLS0tthxLly5l165dsx52NpEVK1YQDAbxeDxMTEwA8PHjR+LxuO3Up5KAH5L09vbS2dlJX18f0WiUp0+fkslkUBQFwzBYu3YtXq/XHj+bTMrKlSupqakhFArZbjudThOLxXj48CFbt27F6/XicrkwDINcLsfo6ChjY2O8ePGCSCRCPB7n8+fPfPr0CQCv18v+/fvZt28fHo+nSM6ZyEhCCBGPx7l58ya3b9+mvb0dWZYpKSnB5/NRV1fHP//8g9frZWxsjEQiQTwe58OHD+TzeVKpFKZp2g/cbreb+vp6zp07x8GDByktLS3KxkxEFNM0Wb58OQ0NDRiGQT6f5/3792QyGXK5HM+fP0fTNGRZZmJiwjZCmqbZq/T5fCxduhSfz8fOnTs5cOAA27dvx+/32+fQXJAMwxCyLGMYBt3d3dy/f5/bt28TiUQQQqDrul0nk/uC1YHdbjcbN26kurqampoaWxKXyzVrBqZlxGIrSRLr1q3D6XQSDAbp7Oykv7+f7u5u4vF40VP+4sWLqa+vp6qqikAgwObNm1m1ahVut5tAIICqqgvu0JL4OWJyn0gmk/T395NIJIhEIjx+/BhN04AfFnH9+vUcOnSI6upqqqqqCAaDLF68GF3XcTqdwK/3IvPNyDQikiTZrxWsOhkdHbX9hmWK/X4/qqricDjsy4K1S/6IyGRYHmIuM/M7/E6SefmRyRNYwSefH4Zh4HA4il7OzEViIf7Gwn8AAxj26d8GCOcAAAAASUVORK5CYII=;" vertex="1" parent="1">
                    <mxGeometry x="332.43" y="588.25" width="38.94" height="49.25" as="geometry"/>
                </mxCell>
                <mxCell id="7" value="" style="shape=image;imageAspect=0;aspect=fixed;verticalLabelPosition=bottom;verticalAlign=top;image=data:image/png,iVBORw0KGgoAAAANSUhEUgAAACQAAAAoCAYAAACWwljjAAAABHNCSVQICAgIfAhkiAAAABl0RVh0U29mdHdhcmUAZ25vbWUtc2NyZWVuc2hvdO8Dvz4AAAAzaVRYdENyZWF0aW9uIFRpbWUAAAAAADIwMjLlubQxMuaciDE05pelIDA25pmCNDXliIYwN+enkkIf9VAAAAcUSURBVFiFzZhrTxPbGoCfmZbaG5cOpVBaKy2C0gIiBGLUBGNMNr9VPxoSo4kx0SgXDUigFrC0NKU10FJ6S6eXmTkfSOdQBYq4z97n/dTMrLX6vJf1XkbQNE3j/0jEfxvgZ7kUSNM0/mkDtrXQRUBN2HbQZ9+pqtpWQeNlLwVB0H8Xi0UajQaCIGA0GrFarYji5fpomoaqqqiqSqPRoF6vY7PZMBgM1wNqQmWzWZ4/f87Ozg5Wq5Vnz57x5MkTNE1rgT5vb7lcJpFIEI/HOTk5we12c//+fSRJQlVVgBbF2gLBqXU+ffrE8vIyLpeL0dFRBEG4UnwlEgmWlpYIh8OUy2VmZmaYnJy8cH1boFKpxMHBAalUinK5zMDAACaT6Sp6EA6HefPmDS9fviQSiTA1NUUoFNJddp51fwmCptaKogBwcHDAxsYGh4eHSJLE1NQUgUDgQojmflmWiUajvH//nmg0itVqZW5ujpmZGSwWiw70M9QvQM0FoijSaDTY3t5maWmJXC6Hw+Fgfn6ekZGRC+NHEARUVSWVShGJRNja2gIgGAzy119/MTs7i8ViQVEUPYYuBTq7qF6vk0wmSSaTuFwuQqEQfr8fSZIutBDAyckJy8vLrK2t6ZYdHR3F7XZjMpnODea2FiqVSuzu7hKJRMhkMgwNDREKheju7r4URlVVisUi6+vrbG9vU6vV8Hq9TExMYDKZ9Lx1Uco4F0jTNPb391lcXGR1dRVZlhkZGSEYDOr+v0iaLkun0xwdHWG327l37x6PHz/G4XDorr4oXZwb1I1Gg3g8zrt378jlcvh8Pqamprh9+zYGg+HS/FOtVjk8PNRvpSRJDA8Pc/PmTYzG00t9WUL95Y0sy2SzWfb29ohEIpjNZsbHx5mYmMDr9V5qHTjNWYlEgkwmQ0dHBx6PB5fLhclkwmg0tihyXh4Tzz5sWieRSJBMJimVSrhcLsbHx3E6nfphFx1arVb58uULHz584MePHzgcDu7evYvT6dTXNPc2y8rPUC0WUhSFcrnM169fiUajVKtVJEliaGiobd0CKBQKrK2tsbKyQqVSwe12MzEx0QLUBGgCNRqNlmdik1hVVSqVCtFolNevX7OysoIoilcKYjhNEdlslm/fvrG7u4skSUxPT/P06VMGBwf1tc31tVqNcrlMpVLRkzCcKR2qqiLLMul0mmg0SjKZpKuri+7ubhwOR1uwarVKPp8nlUrRaDSYmZlhdnaWQCCg37zj42NKpRLValW3jCRJGI1GDAbDaSdx9lBZlikWi5TLZV3rnp4eBgcH2wKVSiUymQyyLNPd3c3Dhw8JBoMYDAYd9vv373pdtNvt3Lp1q6WN0TTtv0CCIFCv16nVahQKhVPzGY3E43FWV1eZmZnB7Xb/4qpmCsjlcoTDYQqFAqqqUq1W2dzcJBwOk06nyWaziKKI2WzG7/fjdrvp7+/H4XBgMpn0/Gc8e6jFYtEtks1mqdVqfP78GZPJhCiKeoMliiKCIOhVW1EUYrEYOzs7ZDIZNE0jEomwv79PNpvl4OCARqPB8PAwDx48YGxsDL/fT1dX1y/xKGingiAIVCoV0uk0a2trvHr1isXFRSqVCna7HafTicfjwe/3MzAwQE9PD2azmWKxSLFYZGNjg48fP1IqlZBlmUAggMfjobe3l7GxMYLBIB6PB7fbTV9fn+6qn1NISwxZLBYCgYAexEajkc3NTXK5HLVajVgsRrFYJJ1OYzabMZlMnJyccHBwQCwW4+joCJfLxZ07d/D5fHi9Xnw+H3Nzc4RCIXp6etp2mMJ5c5miKMiyTCaTYXd3l1gshiiKVCoVUqkUqVSKw8NDFEWhUCiwt7dHPp8HYGFhgYWFBebn5+nv70dRFOx2e9tL0ZRzO0aDwYDNZsNqtWKz2RgaGtL742w2y9HREfl8HlEUicfjvHjxgnw+j81m04uw3+/HbDbrCjYToSAIlybZtlOH0+nE6XRSr9dbrmfzViwtLfH27Vv29/exWq34/X4CgUDLZNFcf9m0cSWgs9LR0aEfrmkaiqKQTqeJx+NkMhlEUaS3txdJknA4HHplbzeZ/Cy/PUo3Td5oNNjY2GBpaYlsNktXVxcejwev14vZbG4pxFepg9cGalqoUqmwtbXF+vo65XIZn8/Ho0ePWrqC64ziV3bZ2T8QRRFN0zg+PiaTyVCv13E6nUxPT9PT06Nb5Hdc1ZRruUzfLIoYjUbMZjNer5dgMNjSalxHrv05pglmMBiQJIn+/n76+vr0YL6u/NluwGq14nA4GBgY4MaNG3963J8D2e12vWb9HfLHX9BUVcVsNtPZ2XnuJPqPAomiqN8oRVF+K9/8T4A6Ozu5efMm8/PzjI6O/vtAkiQxOTnJ9PQ0brf7b3HZue3HZdKsTbIsk8/n9VHJbrf/dt06T/4DCt+U9091uYoAAAAASUVORK5CYII=;" vertex="1" parent="1">
                    <mxGeometry x="371.37" y="590" width="42.75" height="47.5" as="geometry"/>
                </mxCell>
                <mxCell id="14" value="" style="shape=image;imageAspect=0;aspect=fixed;verticalLabelPosition=bottom;verticalAlign=top;image=data:image/png,iVBORw0KGgoAAAANSUhEUgAAACgAAAAuCAYAAABap1twAAAABHNCSVQICAgIfAhkiAAAABl0RVh0U29mdHdhcmUAZ25vbWUtc2NyZWVuc2hvdO8Dvz4AAAAzaVRYdENyZWF0aW9uIFRpbWUAAAAAADIwMjLlubQxMuaciDE05pelIDA25pmCNDXliIYyNOenkipqCd4AAAcYSURBVFiFzZnJT1NtF8B/994OdABKK4VqfQstjTYSKJFo1ASiYkiMC5fu/Av8k9yYuHBnQmJMADcOKKgoU5lEGTtCSwud2/suSG/gC9CLn/X7zqpNz33O757nTM9TQZZlmT8gh5cRBAFZlhEE4VjdcrkMgCiKVdfV/Am4ilQgqwGqAauI8Kc8WCtR7cH/3MK/Jep9zQFkqVRSvh/+XCtR7UFBEMjn84RCIYrFIpIk0dTURGNj45mCvmaAAMvLyzx79oyFhQUaGxt59OgRt2/fpq6ujlqFsmrAUCjEt2/fGB4eZn5+HpvNxs2bNykUCuh0OmRZRpKkvwsoyzLlcplSqcTKygqBQICtrS0ymQypVIr9/X0lDmsBB1WSRBAEJElCEARisRiRSIRCoYBer8fhcGCxWNDpdAiCoMThXwWsSDabJRKJEIvFKJfLnDt3jq6uLlwuFwaDoaZlRxWgLMsEAgE+fvxIMpnE4/EwODhIa2vrEbhaJIoqwHw+z9bWFqFQCACHw8GVK1ew2+2KjiAINfGkKsBcLkc+n0eWZRobG7HZbDQ3N2OxWIDaeE41YDgcZnZ2lnA4jCiKWCwWHA4HNpsNrVZbMzDVgGtra0xOTrKzs4NWq8VkMmEwGKivr685HKgAzGQyBINB8vk8Wq0WURT/f4YFWZZJpVJKcZZlmUKhcGRoqPW0VhUwFAoxPT1NIpFAFEWlY9Sqc5wJUBAEisUiqVSKYrF4ok5lgq6FN0/txdVi7fBYX4E8ruUd1lGzrmrAalIBlGWZbDbL9va2kkySJBGLxZienqatrY3Lly9jsVjOHBr/1chfKBTIZDJsb28TiUT4+fMn+XwevV6PKIqsrq4yPj6Oz+cjkUjg9Xqx2+2YzWZlCFEFeNoJrFQqHWljoigq2RyLxZiYmGBkZIT5+Xm2trbIZrPKFJTJZNjf32diYoLh4WE6Ozvp7+/n3r172O32PwNoNBqx2Wzs7OwoQ2m5XCaRSDA+Ps7Q0BCfPn1ifn7+RCO7u7tsbGwQjUYB6OjowGw2YzQaqx4Tqm6xzWbD7XYTDAZJJpPAQfFeX19naGiIly9fkkql0Gg0VTN5ZWUFo9HIrVu3aG5uxu12K7+d5CQNnJ5VVquVixcv0tDQQDQaZWNjg1evXvH9+3empqbIZrN4PB46Ojro7e3FYrFgNpsBSKVSrK2tMTMzw+LiIuFwmPX1dZ4+fYokSbS3tyt2TmKoCmg0Grlw4QImkwlRFIlGo8TjcSYmJjCbzfj9fjo7O7l+/ToDAwPYbDYFMJfL8ePHD0ZGRnj9+jXpdJp4PM7Y2Bjd3d08ePCApqamU+2ryuJMJnOkUJfLZSRJYnBwkIcPH+Lz+WhpaaGhoQGDwQAcbJlOp8PlctHX14fJZGJ5eZlYLIYoimxvb7O0tITP56OhoeH3AbVaLRaLBZPJdKQIW61Wbty4wZ07d2htbT3xeZPJhNPpJB6PY7fbWVlZoVwuUywW2d/fV1781Bg8Terr64+UBEmSsFqtXL16Fbfbjc1mO6J/XJIUCgWSySS5XA44KFUtLS20tbVhNBqBKjF4mlgsFi5duoTRaFSy1Ol00tfXh8vlUobWCtjh7pLP59nd3eXz58+8e/eO3d1dZFnGYDBgtVqx2+3U1dUdee7MgGazmfb2dpqamoCD+Dt//jxdXV04nU4F+rjDUzKZZGpqitHRUUZHRwkGgxgMBsX7Go1G0S+VSsr3MwFWemdlUBVFEY1GgyRJiKJIuVw+sdiur6/z4sULvn79yurqKrlcjp6eHh4/fkx/fz96vR442N7j4FQBVuDMZrPimUgkwtzcHFarFa/Xi0ajIZfLIQgCiUSCSCRCIpFgbGyM9+/fEwwGEQSB3t5e+vr6GBgY4J9//gGOhsZxL6oKUKvV4vV68fv9LCwsMDs7y/Pnz8nn8xQKBQwGA/l8np2dHQKBAJOTk8zNzbG5ucnu7q5SS588eUJ/fz/Nzc1qzKoH1Ol0XLt2jXA4TDQaJRQKMTs7i9lsZnFxURkm0uk0wWCQX79+sbm5SS6Xw2q1Kp7r7e3F4XAcmwy/ncUV8fv9pNNplpaWKJVKpNNp3r59y4cPHygWiwpkZZKRJAmn04nf7+f+/fvcvXsXp9N55psIVXfUFYBgMMj4+DhfvnxhZmaGN2/esLe3pySQIAjY7Xa8Xi8ul4uOjg56enrw+XzKHFjpQscBHutZNYClUkkZ5/f29ggEAkxPTzM5Ocni4iK5XI5isYher6e9vZ3u7m48Hg8ejwe3243JZFJOgZVKcJzZ3wYsl8tKvau0qWKxSDweP6InyzJarRaDwYBGo0Gv16PVahWYiqdPMvnbgBXIipFqL1IxVtEtlUpV4U4CPPOh6bSLysNQh0UN3IlrqvWgqoyrwZXImTz4N+9kKqL6j43/BRzAv124gXWLDGvPAAAAAElFTkSuQmCC;" vertex="1" parent="1">
                    <mxGeometry x="460" y="590" width="42.83" height="49.25" as="geometry"/>
                </mxCell>
                <mxCell id="15" value="" style="shape=image;imageAspect=0;aspect=fixed;verticalLabelPosition=bottom;verticalAlign=top;image=data:image/png,iVBORw0KGgoAAAANSUhEUgAAACUAAAAvCAYAAABkBQNlAAAABHNCSVQICAgIfAhkiAAAABl0RVh0U29mdHdhcmUAZ25vbWUtc2NyZWVuc2hvdO8Dvz4AAAAzaVRYdENyZWF0aW9uIFRpbWUAAAAAADIwMjLlubQxMuaciDE05pelIDA25pmCNDXliIYzMeenkiDU0FwAAATvSURBVFiF3ZlNc9J6FIefkEADYYAilTY4SKOD0nFhXfkyddzYpUu/ll/DnW5c67iwS5z6Mtja2mmtFEIRB5oY8vK/iztk0Om9LS+2d+5vw4QZkie/c3LOyUESQgj+Y4qcN8BxmgrUwGwhBEEQTHy+qUBJkhR+DgCDIMD3/bEglUmBer0esizj+z6+7xOJRBBCkEqlEEKEwGcC1e122d3dZWtri0ajQavVwjRNIpEIuq7z6NEjDMMAGBnsRCghBJZlYZomvV4Px3EIgoDDw0M2NzfZ3NxkZ2eH/f19vn37hhCCSqVCoVAglUoxOztLNBqdLpTneezt7fHkyRPevHmDoihIkoTjOHQ6HVzXxbZtXNdFCIHruniex7Nnz7Asi8ePH08fqt/vY9s2nz9/5uPHj2HOzMzMEIvFSCaT6LqOpmkoisLGxgYHBwdUq1UuX75Mt9slkUiMFMIToaLRKEEQoCgKQgh83yefz3Pp0iU0TSObzbK8vEylUkGSJJ4+fcqLFy9oNpvs7u5iWdbICX8ilCRJpNNpVlZWuHDhAvl8noWFBXRdJ5lMoqoq+Xyeubk5AF69eoXnefT7fb5//45t2ziOQzweny5ULpfj3r17VCoVSqUS8/PzzM3NEYvFCIKASOTvctfv93+5+M+fP/E8b/pPnyzLpFIplpeXwyRXVRVZlsOw/Ft4PM8LoacGNZCmaUSjUX7v38MwjuNg23b43QB+VKdOdQuSJIWJPjj+Hc5xHBqNBrZtAxCPx8lmsySTyZGdGqv3HTftuK5Lo9Hg6OgI3/dJJBJkMhlSqdSfceo0arfbbG9vU6/XkWWZxcVFdF1HVdWzceo4mabJ2toaOzs75HI5VldXefjw4cjVHE5ZEk4znDabTarVKtFolKtXr3L//n2WlpaYmZkZGerUif5PGlT5TqfD3t4eCwsL3L17lytXrqBp2sihgxFKwj855nkezWaTr1+/YlkWQRAwOzuLoow/qo30y+Mcc12XWq1GrVbDdd2wUQshThX24zRxorfbbZ4/f87r16/p9/tks1kKhQKapo01dU4F6sePH7x9+5bt7W1UVcUwDMrlMvF4/PygOp0OnU6HIAgoFApcu3aNYrEYjjx/HGo4R4QQbG1t8eHDB9rtNsVikdu3b2MYRthazsSp4Tt3XZdqtcrLly/p9XoUi0VWV1cplUrA6C8LY0MN6+joiPX1ddbW1uh2u2QyGZaWlpifnw+fvDNxalCrHMfh8PCQT58+sb+/j6IoXLx4kUKhgKqqBEGAJElnBwXQarWo1WrU63UkSeL69euUy2USicQv4824Gqt4tlot1tfXMU2TdDrNgwcPuHnz5i9D4JnnlGmavHv3jmaziaZp3Llzhxs3boR9bhKgsaBc18U0TTY2NrAsi0QiQalUQtf1EGqcJjw2lOd52LZNo9Hgy5cvOI5DLpcjk8lM7M7YUEIIVFXF9308z8MwDG7duhU+cecCNXDD87xwd2DbdjiynAvUAEiWZRRFoV6v8/79ew4ODvA87/ygYrEY+XyexcVFYrEY/X4fYKpOjTweSpKEYRisrKxQq9VIp9NomjY1IABplJX1IHSDLV6320WWZcrlMqqqhgk/aUkYCWoQosFFh0M2vC6atDxMtIgd3gpPUxO9OAwfTxqyYY18ppNcmYZrYxXPP63/738z09Zf6+9S8zx89RcAAAAASUVORK5CYII=;direction=east;" vertex="1" parent="1">
                    <mxGeometry x="502.83" y="589.13" width="38.77" height="49.25" as="geometry"/>
                </mxCell>
                <mxCell id="16" value="" style="shape=image;imageAspect=0;aspect=fixed;verticalLabelPosition=bottom;verticalAlign=top;image=data:image/png,iVBORw0KGgoAAAANSUhEUgAAACcAAAAzCAYAAAAU5BG4AAAABHNCSVQICAgIfAhkiAAAABl0RVh0U29mdHdhcmUAZ25vbWUtc2NyZWVuc2hvdO8Dvz4AAAAzaVRYdENyZWF0aW9uIFRpbWUAAAAAADIwMjLlubQxMuaciDE05pelIDA25pmCNDXliIYzNuenkr0D6OUAAAfLSURBVFiF7ZnZTxPfF8A/Mx06hbYC0kKxQAUXZK+IuH6DkQdf9NEnX0z8R/xjfDAxxi2a+KSGB8AQsdHKMlgsW21lKYVO15n5PvjrCLhQlu9PHzxJk5vm5t7PPefcc849IxiGYfCHivi7AX4l0k4mF5T8K2ULgoAgCHuj+p9sC2cYBpqmkUqlyGazJJNJLBYLkiRhtVqRZRmr1YokSeZ8wzD2BXBbOEEQyGQyBINBRkdHGRkZQZZlPB4P7e3t+P1+GhoaAMjlciakruuI4t68Zls4TdOYn5/n5cuXhEIhZmdnqaysRBRFAoEAMzMzVFdXU19fj8vlwuVyYbfbKSsr2xNYUXCqqjI1NcXz58/JZDKcPXuWpqYmJEnixYsXBAIB4vE4vb29XLhwgfb2dpqbm6mvr0eW5f8W7vPnz4yPj6MoCh0dHVy6dAmfz4cgCHg8Hs6fP8/c3ByRSIShoSECgQDd3d309/fT1NSE3W43Tb3vcGtra6iqiqZpVFZW4vP5OH78OKWlpXR0dCAIApFIhPv37/PkyRPGx8f58uULgiBgsVjo7OzcFRiA5fbt27d/NeHAgQPIsszCwgKSJJHP56mpqaGqqgr46vg2mw2v14vf7yeXy7G8vMz4+DgVFRUcPXoUm822K7htNVdWVobX6+X06dNMTk4yODhIY2MjHo8Hh8MBgNVqpaGhgcrKSlZXV8nlcjx8+BBFUZifn0cQBJxO547Dy7Z3XRAEDh48SF9fH263m7GxMV6/fk0wGCSdTiMIApqmsb6+TjKZpLW1ldbWVgzDYG5ujoWFBVKp1I6gClKUp9rtdpqamjhz5gyxWAxFUbh37x4rKyuUlpYSi8X4+PEjc3NzyLLMxMQEi4uLZDIZ0um0ecidBudfwhXSVElJCS6Xi+7ubgzD4O7duwwMDKBpGoZhEAqFmJiYIBKJoOs6qqpSUlKC0+k0TV9Yb9/gti5UVVVFb28v2WyWwcFBBgcHicViqKrK+fPnuXbtGqlUilAoxPT0NC0tLbS0tFBRUQGw44xRdAASRRGbzUZ1dTVHjhwhHA4zPT3N8vIyhmFw+PBhrl69yszMDLW1tRw5coSOjg5qamp2BLQjuI2mkCQJVVVJJBIsLi6STqfRNA1ZlqmpqaGuro5EIoHT6eTKlSscPnx4Tzm2KJ/bKOl0muHhYQKBABcvXmRxcZFEIsGnT58YGhrC6/Xi8Xjw+XzIsryn6mRHmkulUsRiMYaGhgiHw9y8eROn08nw8DCTk5MsLS1x69YtXC6Xmfj/M7iNCxuGQTQa5f3798iybObZQ4cOcfLkSR4/fsz79+959OgRS0tLXL9+HavVumuwbeG2Ai4tLREMBnG73Xg8Hurq6vB6vfh8PqLRKJFIhMHBQTKZDH6/n8bGxj2VTjvy1GQyyefPnyktLaWmpgar1Wo6e3NzM5cvX0aSJCYnJ3nw4AHBYHDXYEXDGYZBMpkkFAqhKAoHDx6kra0Nu91uzqmrq6Orq4srV67gdrsZGRkhFAqh6zq6rpvl+77CFcCmpqZQFIVoNEptbS2dnZ04HA50XQegvLyctrY2bty4wT///EM4HGZiYoJoNGqmsI1wxYAWlfiTySRjY2Osra1x4sQJvF4vdrsdTdNMn9R1HUmS8Pl89PT00NPTw/z8PHfu3CEUCpFKpb4D2qrNreOizBqPx3n79i2qquL3+/F6vVgsFiwWy7dTiiKiKCLLMg0NDfT395PNZnn27BmBQIBYLIamaZvWLWj9Z1K0WYPBIPF4nNraWpxO5w9PahgGoihSVVVlmj0ajTIwMMDo6OgmmH0xaz6fJx6PoygKiUSCioqKTZVtwawbTVQoUJubm6mtrSUSiTAxMUEymdy8uShuClVbx9vC6brO+vo66XSafD6PruumebYuVvhZLBYcDgd+v59z586haRqzs7Pmrf0RzI+k6DhXCAlbN/iZWCwWPB4PjY2NfPnyBUVRmJ6eJpVKoet6UWltWzhRFHE4HGbA3Qj3I5/b+L/H46GhoYFsNkssFmNmZoZkMll00bktnCRJVFRUmG/QpaUlVFX96fyNwIXy3uFwoKoqy8vLqKq67S0tGk4QBOx2O62trZSXlzM/P08ikdgU4+Cbc2/1w4Kv5nI5crkc+Xz+hwfZFRx8Lc/7+vpwuVy8efOGkZERwuGw6T+appHP583NBEEgn88zNTXF0NAQq6urlJSUIIoikiSZ+fhXcIZhFFemHzhwAL/fTzQa5cOHDzx9+pSpqSlOnTpFfX095eXl2Gw28vk8kiSxurrK+Pg4gUCAd+/eAdDe3k5bWxtlZWVFwQmCUBycJEk0NTXR1dXF27dvefXqldl2aGlpMYvLbDaLJEl8+vSJly9foigKuVyOrq4u+vr6aGlpMR/XxfidsJOe8MrKCoqiEAwGiUQiaJrG2toaKysrZk+lcGszmQyNjY10dnZy7NgxMycXmjr5fN5MefsCl81msVqtxONx5ubmmJ6eJhwOE4lEWF1dJZPJAF/bE263m9bWVs6cOYPb7cZms20C2Xc4+BaMNU3bdAMLF0IQBERRxGKxmO0vSZK+i2uapn2XvvYMtxcxDGPTU3G7FsX/tdUvCAK5XM4cbzv/d3wk2aitX2nut8AVK3/0F5y/cLuVv3C7lb9wu5U/Gu5fMET6ryLG/zcAAAAASUVORK5CYII=;" vertex="1" parent="1">
                    <mxGeometry x="541.6" y="588.25" width="39" height="51" as="geometry"/>
                </mxCell>
                <mxCell id="17" value="" style="shape=image;imageAspect=0;aspect=fixed;verticalLabelPosition=bottom;verticalAlign=top;image=data:image/png,iVBORw0KGgoAAAANSUhEUgAAACkAAAAoCAYAAABjPNNTAAAABHNCSVQICAgIfAhkiAAAABl0RVh0U29mdHdhcmUAZ25vbWUtc2NyZWVuc2hvdO8Dvz4AAAAzaVRYdENyZWF0aW9uIFRpbWUAAAAAADIwMjLlubQxMuaciDE05pelIDA25pmCNDXliIY0MeenkpL0DEwAAAgwSURBVFiF1ZhbTxNdF8d/M22HFmhpORgtTTEIlVoJRUWJBg8XGtFEjB9AE+/8Ot74GYwmXngCL7QRY5QiqKgcCoISlJbairSWdqazn4snnbQIUtD3Sd5/0ovZnb3Xb689a+21tySEEPxlbTakpmlYLBbjOZ/PI0kSsiyv+775b8JpmkY6nSadTpNMJvn+/Tu5XA4ARVFwOp24XC4AXC4XNptt3XHWTvKvQqbTaT59+sTLly8Jh8MMDQ0RjUaxWCy43W6CwSD79+/n5MmTKIpiQEqStC7cX4XMZDJ8+vSJ8fFxwuEwkUiEsbExIpEIQgiEEMRiMZaXl5mamiKRSHD58mXq6+sBkGUZIcQvsIXnbUMKIdA0jVwux8LCAo8ePSIUCvHs2TOy2SzZbBar1Yosy8iyTCaTYXp6mtnZWSoqKujt7aWhoQGr1YrJZCoZuwBX0LYgC7OWZZlwOMzAwAChUIj5+XmSySSVlZXs2bOHU6dO4fV6Abh37x6Dg4PU1NRQX1+PzWYrCZS1YH8MKUkSmUyGxcVFnjx5woMHD5icnERVVWw2G/v27aO7u5szZ87Q0tJCLpcjFosRi8UIBAIcOHCA6upqFEUxvLh2iUvsbTUFqaqKLMtMT0/T39/PzZs3GRsbI5VKYbVa8fv9XL16lUuXLuFwOMhms0SjUT5+/Eg8Hsfv99Pa2kpNTU0JYGF11oPcsidVVWVubo5QKMS9e/eYmpri58+fOBwOurq6OH/+PMePH2fnzp3IsozNZiOTyRAIBBBC0NDQAEAsFsNms+F0OjeEKxuyeBny+TyLi4v09/fT39/P4OAg2WwWu91OW1sb586d49q1a1itVoQQ5PN5TCYTHo8HIQSrq6tEo1G+fv1KPB7H4/HQ3t6OJEmGV3Vd/wV6U8jil9PpNLOzs4RCId69e0c2m6W+vp5AIMDZs2c5evQoVqvVMGQymYxlXF1dZX5+nlu3bvH69WsSiQQHDx4kkUgQDAZxuVxGJtiyJ4sBJycnGR4eZmRkhGg0iizLtLW1ceLECU6fPk1zczOapmEymYzJSZJk5MlwOMz9+/cZHR0ll8uhqio+nw+fz2fsROupLEghBEtLS9y+fZs7d+4QjUb/7Ww2c/jwYfr6+ti9e3eJoeLkrGkaL1684ObNm4yPj7O6ugqA3W43AmijfbtsyGw2SzweZ2xsjJmZGYQQWK1W2tvbCQaD7N27l6qqqpI+BcB4PM7w8DADAwOEw2FWVlaQZZmqqiqam5tpbm6murr6t/bLgozH40xMTPDt2zfjW2tra+PixYsEg0FjDy72Hvxb3QwNDXH9+nXevn1LPB5H13WcTifBYJCuri4CgQBWq/XPIcfHx3n69CnRaNSIWr/fT09PD16vF1mWjUgWQhCNRpmZmeHr1688fvyY0dFRkskkmqYZweH3+/F4PJsClg05OztrVDQAtbW1uN1uvF6vERRms5kfP34QjUaZnp5mfHyciYkJIpEIS0tLmM1mA9Dn89HZ2Ynb7TYm98eQ+XyeVCqFrutUVVWxY8cOY9fJZDJ8+fKFdDrNzMwMY2NjLC0tkclkWFlZMbynaRoVFRWcOHGC7u5ujh07RlNT06aAZUMKITCbzei6TjqdZnl5mQ8fPqCqKolEgkQiwfLyMpOTk8RiMYQQRhoSQhh502w24/V66ejooLm5mYqKik3tSpJUHqTL5cLj8ZBMJonFYsTjcZ48eUIoFDJAVFVF0zQkSaKurg6n08nc3Bz5fB6LxYKqqgghqKurY/fu3eRyOSRJwmKx/HZLLNuTHR0dXLlyhefPnzM7O2ucT4QQyLKMxWKhsrISq9VqVDbJZJIvX76g6zqqqmKxWGhtbcXv91NXV0dVVdVvc+OWIVtbW/F4PDQ1NbGwsIAsy4YHZVlGURRqa2uprKxE0zQ+f/7M8PAwdrudbDZr7N8HDx5k37592O32EsC1qWtte1mQJpMJh8NBIBCgpaXFaC8UAkIIqquryWazLCwsMDg4yMOHD4nH48ZJsKuri76+PlpaWn5J/BtBFiZSFmQBpLa29pf2YiOJRIJXr14xNDTEzMwMkiRRXV2Nz+ejp6eHQ4cOYbPZSiJa13Xy+XwJ1C8SZUjX9d/+8vm80HVdDAwMiOPHj4vKykohy7JQFEV0dnaKGzduiA8fPgghhMjlciKfzxvjapomVFUVuq5vaP+vnBZ1XWdpaYmJiQnev39vFBAAjY2NtLe3s3Pnzl+8VdhiCylqI5UXXhuo8E2mUinevn3L6Ogo379/Nww3NjbS0tJCY2MjDocDXdeNSa0dZ60KRwrYwjdZ3Lm4Tdd1UqkUIyMjTE1NGcnbbrdz+fJlent72bVrl3G2Lqi4Al9v/OLnLS+3JEkly1Mo4V6+fMnHjx8RQqAoCh0dHZw9e5YjR46UHLSKjW8UKGs9+0fLraoqr1+/5u7du4yMjLC4uIjJZMLn89Hd3U1dXZ0BVFypF6eucrQtyILBVCrF8PAwT58+JRaLIUkSLpeLQ4cOcfr0aQOyuF/x7dlmd0AFbfty4MePH8zNzfHmzRsikQi6rqMoCm63m5MnT9Ld3Y3D4djwPF3w5Gb79rYhASKRCA8ePODdu3fouo4syzidTpqammhoaMDhcJQA/Ym2DVm4Ypmfn0fTNADcbjednZ00NDSU7aX/KaSqqui6jqZpKIqC2Wxm//79XLhwgb1795YEylb0V65ZCvJ6vZw/f549e/aQyWSoqamhp6dn3QJiO2Al/2/3zjyXyxkHfACLxYKiKGUVsVvVtiH/S/1RMv+v9H8B+Q9Vgm4D+XJq8gAAAABJRU5ErkJggg==;" vertex="1" parent="1">
                    <mxGeometry x="580.6" y="589.12" width="50.48" height="49.25" as="geometry"/>
                </mxCell>
            </root>
        </mxGraphModel>
    </diagram>
</mxfile>